<?xml version="1.0" encoding="UTF-8"?>
<svg width="23px" height="29px" viewBox="0 0 23 29" version="1.1" xmlns="http://www.w3.org/2000/svg" xmlns:xlink="http://www.w3.org/1999/xlink">
    <!-- Generator: Sketch 55.2 (78181) - https://sketchapp.com -->
    <title>logo</title>
    <desc>Created with Sketch.</desc>
    <g id="logo" stroke="none" stroke-width="1" fill="none" fill-rule="evenodd">
        <path d="M11.521,28.864 C5.16109728,28.8568358 0.00716423153,23.7029027 1.42108547e-14,17.343 L1.42108547e-14,14.272 L4,14.272 L4,17.344 C4.00275175,21.4977271 7.36727724,24.8653841 11.521,24.872 C15.6766119,24.8697984 19.045934,21.5036081 19.052,17.348 L19.052,14.272 L23.052,14.272 L23.052,17.344 C23.0437258,23.7071846 17.8841896,28.8617988 11.521,28.864 Z" id="Path_13" fill="#724CF9" fill-rule="nonzero"></path>
        <path d="M11.571,23.068 C8.36184354,23.0635933 5.76140667,20.4631565 5.757,17.254 L9.757,17.254 C9.7597576,18.2557771 10.5732198,19.0661071 11.575,19.065 C12.5767802,19.0661071 13.3902424,18.2557771 13.393,17.254 L17.393,17.254 C17.388586,20.4662772 14.7832802,23.068 11.571,23.068 Z" id="Path_14" fill="#FA198B" fill-rule="nonzero"></path>
        <path d="M3.984,14.328 L3.984,10.328 C5.43913626,10.3791846 6.86708002,9.92475858 8.025,9.042 C9.01247128,8.22079609 9.56230186,6.9873724 9.513,5.704 L13.513,5.704 L13.513,5.888 C13.513,9.15 16.363,10.315 19.036,10.315 L19.036,14.315 C16.6741098,14.3754984 14.3605907,13.6393146 12.468,12.225 C12.1053104,11.9360635 11.7683798,11.6161969 11.461,11.269 C11.1922715,11.5701559 10.9021867,11.8515516 10.593,12.111 C8.71560643,13.5974766 6.37802253,14.381623 3.984,14.328 Z" id="Path_15" fill="#724CF9" fill-rule="nonzero"></path>
        <circle id="Ellipse_2" fill="#FA198B" fill-rule="nonzero" cx="11.547" cy="2.125" r="2.125"></circle>
    </g>
</svg>